<?xml version="1.0" encoding="iso-8859-1"?>
<!-- Uploaded to: SVG Repo, www.svgrepo.com, Generator: SVG Repo Mixer Tools -->
<svg fill="#000000" height="800px" width="800px" version="1.1" id="Layer_1" xmlns="http://www.w3.org/2000/svg" xmlns:xlink="http://www.w3.org/1999/xlink" 
	 viewBox="0 0 511.999 511.999" xml:space="preserve">
<g>
	<g>
		<g>
			<path d="M493.538,126.629H18.462C8.266,126.629,0,134.895,0,145.09v52.282c0,65.562,53.338,118.899,118.898,118.899h12.164
				v50.638c0,10.196,8.266,18.462,18.461,18.462h212.951c10.196,0,18.461-8.266,18.461-18.462v-50.638h12.162
				c65.562,0,118.9-53.338,118.9-118.899V145.09C512,134.895,503.734,126.629,493.538,126.629z M167.985,348.446V316.27h176.028
				v32.176H167.985z M475.077,197.371c0,45.202-36.774,81.975-81.977,81.975c-7.591,0-267.324,0-274.202,0
				c-45.201,0.001-81.975-36.773-81.975-81.975v-33.82h438.154V197.371z"/>
			<path d="M118.898,252.996c10.196,0,18.461-8.266,18.461-18.462s-8.266-18.462-18.461-18.462c-8.113,0-15.461-5.418-17.87-13.177
				c-3.022-9.739-13.367-15.179-23.103-12.161c-9.738,3.022-15.183,13.365-12.161,23.103
				C73.034,237.259,94.386,252.996,118.898,252.996z"/>
		</g>
	</g>
</g>
</svg>